<?xml version="1.0" encoding="UTF-8"?>
<!DOCTYPE svg PUBLIC "-//W3C//DTD SVG 1.1//EN" "http://www.w3.org/Graphics/SVG/1.1/DTD/svg11.dtd">
<svg version="1.1" xmlns="http://www.w3.org/2000/svg" xmlns:xlink="http://www.w3.org/1999/xlink" x="0" y="0" width="512" height="512" viewBox="0, 0, 512, 512">
  <g id="Image">
    <path d="M244,136.544 C137.984,136.544 52,222.512 52,328.544 C52,413.376 107.008,485.344 183.312,510.736 C192.896,512.512 196,506.56 196,501.504 L196,465.76 C142.592,477.376 131.472,443.104 131.472,443.104 C122.736,420.912 110.144,415.008 110.144,415.008 C92.72,403.088 111.472,403.344 111.472,403.344 C130.752,404.688 140.896,423.136 140.896,423.136 C158.016,452.48 185.808,444 196.768,439.088 C198.48,426.688 203.456,418.208 208.96,413.424 C166.32,408.544 121.488,392.08 121.488,318.528 C121.488,297.552 128.992,280.432 141.264,266.992 C139.28,262.144 132.704,242.608 143.136,216.176 C143.136,216.176 159.264,211.024 195.952,235.856 C211.264,231.6 227.68,229.472 244,229.392 C260.32,229.472 276.752,231.6 292.096,235.856 C328.752,211.024 344.848,216.176 344.848,216.176 C355.296,242.624 348.72,262.16 346.736,266.992 C359.056,280.432 366.496,297.568 366.496,318.528 C366.496,392.272 321.584,408.512 278.832,413.264 C285.712,419.216 292,430.896 292,448.816 L292,501.504 C292,506.608 295.072,512.608 304.816,510.72 C381.056,485.296 436,413.344 436,328.544 C436,222.512 350.032,136.544 244,136.544 z" fill="#FFFFFF" id="iconmonstr-github-1"/>
  </g>
</svg>
