<?xml version="1.0" encoding="UTF-8"?>
<!DOCTYPE svg PUBLIC "-//W3C//DTD SVG 1.1//EN" "http://www.w3.org/Graphics/SVG/1.1/DTD/svg11.dtd">
<svg version="1.1" xmlns="http://www.w3.org/2000/svg" xmlns:xlink="http://www.w3.org/1999/xlink" x="0" y="0" width="768" height="1024" viewBox="0, 0, 768, 1024">
  <defs>
    <linearGradient id="Gradient_1" gradientUnits="userSpaceOnUse" x1="112.5" y1="894.5" x2="112.5" y2="894.5">
      <stop offset="0" stop-color="#8223AA"/>
      <stop offset="1" stop-color="#400D56"/>
    </linearGradient>
  </defs>
  <g id="Layer_1">
    <path d="M144.714,1312.08 C146.011,1312.16 147.369,1312.147 148.633,1312.521 C159.081,1338.969 152.505,1358.505 150.521,1363.337 C162.841,1376.777 170.281,1393.913 170.281,1414.873 C170.415,1446.077 161.5,1476.215 133.474,1494.477 C131.986,1496.95 134.856,1496.443 134.856,1496.443 L161.489,1496.427 C177.946,1493.264 188.486,1479.324 191.834,1463.666 C191.834,1463.666 194.876,1443.884 212.324,1435.584 L212.324,1435.584 C212.324,1435.584 229.657,1428.426 217.593,1445.228 C217.593,1445.228 207.936,1455.016 207.497,1477.53 C207.581,1484.507 204.784,1490.671 201.096,1496.403 L765.5,1496.187 C767.157,1496.187 768.5,1497.53 768.5,1499.187 L768.5,1726.205 C768.5,1727.862 767.157,1729.205 765.5,1729.205 L2.785,1729.205 C1.128,1729.205 -0.215,1727.862 -0.215,1726.205 L0.093,1616.187 L-0.215,1562.105 C-53.623,1573.721 -64.743,1539.449 -64.743,1539.449 C-73.479,1517.257 -86.071,1511.353 -86.071,1511.353 C-103.495,1499.433 -84.743,1499.689 -84.743,1499.689 C-65.463,1501.033 -55.319,1519.481 -55.319,1519.481 C-38.199,1548.825 -10.407,1540.345 0.553,1535.433 C2.265,1523.033 7.241,1514.553 12.745,1509.769 C-29.895,1504.889 -74.727,1488.425 -74.727,1414.873 C-74.727,1393.897 -67.223,1376.777 -54.951,1363.337 C-56.935,1358.489 -63.511,1338.953 -53.079,1312.521 C-53.079,1312.521 -36.951,1307.369 -0.263,1332.201 C15.049,1327.945 31.465,1325.817 47.785,1325.737 C64.105,1325.817 80.537,1327.945 95.881,1332.201 C110.508,1322.874 126.747,1312.462 144.714,1312.08 z" fill-opacity="0" stroke="#FDFDFD" stroke-width="8"/>
    <g>
      <path d="M112.5,894.5" fill="url(#Gradient_1)"/>
      <path d="M112.5,894.5" fill-opacity="0" stroke="#FDFDFD" stroke-width="1"/>
    </g>
    <g>
      <path d="M254.791,1655.261 Q236.464,1660.109 222.837,1660.109 Q198.787,1660.109 185.944,1647.454 Q173.101,1634.798 173.101,1611.187 Q173.101,1588.017 186.114,1575.141 Q199.128,1562.265 222.633,1562.265 Q238.031,1562.265 254.655,1566.484 L254.655,1578.698 Q233.807,1572.15 222.701,1572.15 Q206.35,1572.15 197.322,1582.413 Q188.295,1592.676 188.295,1611.313 Q188.295,1629.761 197.969,1639.993 Q207.644,1650.224 225.086,1650.224 Q232.24,1650.224 240.552,1647.895 L240.552,1617.547 L254.791,1617.547 z" fill="#FFFFFF"/>
      <path d="M273.499,1657.78 L273.499,1589.402 L286.921,1589.402 L286.921,1657.78 z M273.499,1576.998 L273.499,1564.595 L286.921,1564.595 L286.921,1576.998 z" fill="#FFFFFF"/>
      <path d="M329.27,1659.354 Q319.051,1659.354 313.328,1653.939 Q307.605,1648.524 307.605,1638.891 L307.605,1598.721 L298.339,1598.721 L298.339,1589.402 L307.605,1589.402 L307.605,1576.998 L321.026,1575.802 L321.026,1589.402 L340.376,1589.402 L340.376,1598.721 L321.026,1598.721 L321.026,1636.624 Q321.026,1650.035 333.563,1650.035 Q336.22,1650.035 340.035,1649.217 L340.035,1657.78 Q333.835,1659.354 329.27,1659.354 z" fill="#FFFFFF"/>
      <path d="M352.066,1657.78 L352.066,1564.595 L366.374,1564.595 L366.374,1603.884 L414.338,1603.884 L414.338,1564.595 L428.646,1564.595 L428.646,1657.78 L414.338,1657.78 L414.338,1613.769 L366.374,1613.769 L366.374,1657.78 z" fill="#FFFFFF"/>
      <path d="M494.501,1657.78 L494.501,1644.935 Q483.804,1659.354 468.543,1659.354 Q458.868,1659.354 453.145,1653.719 Q447.422,1648.083 447.422,1638.513 L447.422,1589.402 L460.844,1589.402 L460.844,1634.484 Q460.844,1642.165 463.263,1645.408 Q465.681,1648.65 471.336,1648.65 Q483.6,1648.65 494.501,1633.728 L494.501,1589.402 L507.923,1589.402 L507.923,1657.78 z" fill="#FFFFFF"/>
      <path d="M528.062,1658.535 L528.062,1558.361 L541.483,1558.361 L541.483,1602.246 Q549.727,1587.891 566.215,1587.891 Q579.569,1587.891 587.234,1596.895 Q594.899,1605.898 594.899,1621.513 Q594.899,1638.513 586.212,1648.934 Q577.525,1659.354 563.354,1659.354 Q550.204,1659.354 541.483,1650.035 L539.848,1658.535 z M541.483,1641.472 Q551.839,1650.035 561.242,1650.035 Q580.591,1650.035 580.591,1622.772 Q580.591,1598.721 563.422,1598.721 Q552.18,1598.721 541.483,1609.991 z" fill="#FFFFFF"/>
    </g>
  </g>
</svg>
