<?xml version="1.0" encoding="UTF-8"?>
<!DOCTYPE svg PUBLIC "-//W3C//DTD SVG 1.1//EN" "http://www.w3.org/Graphics/SVG/1.1/DTD/svg11.dtd">
<svg version="1.1" xmlns="http://www.w3.org/2000/svg" xmlns:xlink="http://www.w3.org/1999/xlink" x="0" y="0" width="212" height="212" viewBox="0, 0, 212, 212">
  <g id="Layer_1">
    <path d="M144.555,155.291 C144.555,155.291 110.925,203.862 110.925,203.862 C110.925,203.862 125.338,142.339 125.338,142.339 C125.338,142.339 144.555,155.291 144.555,155.291 z" fill-opacity="0" stroke="#FFFFFF" stroke-width="1"/>
    <path d="M204.61,12.816 C204.61,12.816 168.577,197.386 168.577,197.386 C168.577,197.386 125.338,142.339 125.338,142.339 C125.338,142.339 204.61,12.816 204.61,12.816 z" fill-opacity="0" stroke="#FFFFFF" stroke-width="1"/>
    <path d="M204.61,12.816 C204.61,12.816 127.74,145.577 127.74,145.577 C127.74,145.577 110.925,203.862 110.925,203.862 C110.925,203.862 67.686,126.148 67.686,126.148" fill-opacity="0" stroke="#FFFFFF" stroke-width="1"/>
    <path d="M204.61,12.816 C204.61,12.816 67.686,126.148 67.686,126.148 C67.686,126.148 12.436,122.91 12.436,122.91 C12.436,122.91 204.61,12.816 204.61,12.816 z" fill-opacity="0" stroke="#FFFFFF" stroke-width="1"/>
  </g>
</svg>
