<?xml version="1.0" encoding="UTF-8"?>
<!DOCTYPE svg PUBLIC "-//W3C//DTD SVG 1.1//EN" "http://www.w3.org/Graphics/SVG/1.1/DTD/svg11.dtd">
<svg version="1.1" xmlns="http://www.w3.org/2000/svg" xmlns:xlink="http://www.w3.org/1999/xlink" x="0" y="0" width="235" height="235" viewBox="0, 0, 235, 235">
  <g id="Layer_3" display="none">
    <g>
      <path d="M-5,-3 L242.5,-3 L242.5,245 L-5,245 L-5,-3 z" fill="#5F008D"/>
      <path d="M-5,-3 L242.5,-3 L242.5,245 L-5,245 L-5,-3 z" fill-opacity="0" stroke="#F32222" stroke-width="1"/>
    </g>
  </g>
  <g id="Layer_1" display="none"/>
  <g id="Layer_2">
    <g>
      <g>
        <path d="M126.355,125.557 L179.229,178.432" fill-opacity="0" stroke="#FFFFFF" stroke-width="0.5"/>
        <path d="M119.377,107.819 L120.935,107.825 C123.125,108.284 124.747,109.255 126.355,110.708 C130.455,114.809 130.455,121.457 126.355,125.557 C122.254,129.658 115.606,129.658 111.505,125.557 C107.405,121.457 107.405,114.809 111.505,110.708 C114.215,108.144 115.822,107.94 119.377,107.819 z" fill-opacity="0" stroke="#FFFFFF" stroke-width="0.5"/>
        <path d="M59.132,58.335 L111.505,110.708" fill-opacity="0" stroke="#FFFFFF" stroke-width="0.5"/>
      </g>
      <g>
        <path d="M128.981,121.009 L201.209,140.363" fill-opacity="0" stroke="#FFFFFF" stroke-width="0.5"/>
        <path d="M114.069,109.136 L115.421,108.362 C117.547,107.665 119.437,107.695 121.556,108.149 C127.157,109.65 130.481,115.408 128.981,121.009 C127.48,126.611 121.722,129.935 116.121,128.434 C110.519,126.933 107.195,121.175 108.696,115.574 C109.761,111.999 111.051,111.019 114.069,109.136 z" fill-opacity="0" stroke="#FFFFFF" stroke-width="0.5"/>
        <path d="M37.153,96.404 L108.696,115.574" fill-opacity="0" stroke="#FFFFFF" stroke-width="0.5"/>
      </g>
      <g>
        <path d="M128.981,115.757 L201.209,96.404" fill-opacity="0" stroke="#FFFFFF" stroke-width="0.5"/>
        <path d="M110.13,112.931 L110.914,111.584 C112.407,109.918 114.059,108.999 116.121,108.333 C121.722,106.832 127.48,110.156 128.981,115.757 C130.481,121.359 127.157,127.116 121.556,128.617 C115.955,130.118 110.197,126.794 108.696,121.193 C107.83,117.564 108.457,116.07 110.13,112.931 z" fill-opacity="0" stroke="#FFFFFF" stroke-width="0.5"/>
        <path d="M37.153,140.363 L108.696,121.193" fill-opacity="0" stroke="#FFFFFF" stroke-width="0.5"/>
      </g>
      <g>
        <path d="M126.355,111.209 L179.229,58.335" fill-opacity="0" stroke="#FFFFFF" stroke-width="0.5"/>
        <path d="M108.617,118.187 L108.622,116.628 C109.081,114.439 110.053,112.817 111.505,111.209 C115.606,107.109 122.254,107.109 126.355,111.209 C130.455,115.31 130.455,121.958 126.355,126.059 C122.254,130.159 115.606,130.159 111.505,126.058 C108.941,123.349 108.738,121.742 108.617,118.187 z" fill-opacity="0" stroke="#FFFFFF" stroke-width="0.5"/>
        <path d="M59.132,178.432 L111.505,126.059" fill-opacity="0" stroke="#FFFFFF" stroke-width="0.5"/>
      </g>
      <g>
        <path d="M121.806,108.583 L141.16,36.355" fill-opacity="0" stroke="#FFFFFF" stroke-width="0.5"/>
        <path d="M109.934,123.495 L109.159,122.143 C108.462,120.017 108.492,118.127 108.947,116.008 C110.448,110.407 116.205,107.082 121.806,108.583 C127.408,110.084 130.732,115.842 129.231,121.443 C127.73,127.045 121.973,130.369 116.371,128.868 C112.796,127.803 111.816,126.513 109.934,123.495 z" fill-opacity="0" stroke="#FFFFFF" stroke-width="0.5"/>
        <path d="M97.201,200.411 L116.371,128.868" fill-opacity="0" stroke="#FFFFFF" stroke-width="0.5"/>
      </g>
      <g>
        <path d="M116.555,108.583 L97.201,36.355" fill-opacity="0" stroke="#FFFFFF" stroke-width="0.5"/>
        <path d="M113.729,127.434 L112.382,126.65 C110.715,125.157 109.796,123.505 109.13,121.443 C107.629,115.842 110.953,110.084 116.555,108.583 C122.156,107.082 127.914,110.407 129.414,116.008 C130.915,121.609 127.591,127.367 121.99,128.868 C118.361,129.733 116.868,129.107 113.729,127.434 z" fill-opacity="0" stroke="#FFFFFF" stroke-width="0.5"/>
        <path d="M141.16,200.411 L121.99,128.868" fill-opacity="0" stroke="#FFFFFF" stroke-width="0.5"/>
      </g>
    </g>
  </g>
  <g id="Layer_4">
    <path d="M92.793,3.656 C99.56,4.179 104.614,8.36 106.682,14.765 C107.666,18.084 107.078,21.285 105.983,24.46 C131.145,21.296 156.182,28.102 176.211,43.611 C176.562,40.078 178.173,37.14 180.515,34.549 C186.373,28.691 195.871,28.691 201.728,34.549 C207.586,40.407 207.586,49.904 201.728,55.762 C198.874,58.523 196.678,59.289 192.903,60.021 C209.471,80.238 213.727,104.858 211.817,130.294 C214.944,128.896 218.223,128.89 221.512,129.596 C229.514,131.74 234.263,139.965 232.119,147.967 C229.975,155.969 221.749,160.718 213.747,158.574 C211.334,157.915 209.14,156.685 207.31,154.974 C206.695,154.4 206.206,153.704 205.655,153.069 C201.277,164.845 193.765,175.003 185.18,184.034 C178.093,191.05 169.87,196.833 160.95,201.28 C158.68,202.412 156.31,203.33 153.99,204.355 C156.879,206.428 158.622,209.294 159.697,212.624 C161.842,220.626 157.093,228.851 149.091,230.995 C141.089,233.139 132.864,228.39 130.72,220.388 C129.677,216.914 130.404,213.634 131.545,210.325 C106.482,214.507 81.05,207.176 61.146,191.77 C60.795,195.212 59.166,198.082 56.886,200.604 C51.028,206.462 41.531,206.462 35.673,200.604 L35.673,200.604 L35.673,200.604 C29.815,194.747 29.815,185.249 35.673,179.391 C38.531,176.627 40.727,175.864 44.508,175.131 C28.804,155.426 21.706,129.725 25.813,104.781 C22.605,106.228 19.273,106.284 15.889,105.558 C13.27,104.95 11.513,103.563 9.452,101.958 C5.427,97.913 4.098,92.706 5.283,87.187 C7.427,79.185 15.652,74.436 23.654,76.58 C26.059,77.245 28.273,78.458 30.092,80.179 C30.722,80.906 31.353,81.632 31.984,82.358 C31.986,82.362 31.988,82.366 31.991,82.37 C36.596,70.651 43.812,60.355 52.244,51.098 C61.066,42.203 71.626,35.322 83.209,30.623 C80.411,28.601 78.746,25.758 77.704,22.53 C75.56,14.528 80.308,6.303 88.31,4.159 C90.785,3.628 89.301,3.868 92.793,3.656 z M123.258,32.674 C98.549,31.831 76.921,40.508 59.076,57.473 C25.882,90.667 25.882,144.486 59.076,177.681 C92.271,210.875 146.09,210.875 179.285,177.681 C212.479,144.486 212.479,90.667 179.285,57.473 C162.461,41.217 146.218,34.873 123.258,32.674 z" fill-opacity="0" stroke="#FFFFFF" stroke-width="1"/>
  </g>
</svg>
