<?xml version="1.0" encoding="UTF-8"?>
<!DOCTYPE svg PUBLIC "-//W3C//DTD SVG 1.1//EN" "http://www.w3.org/Graphics/SVG/1.1/DTD/svg11.dtd">
<svg version="1.1" xmlns="http://www.w3.org/2000/svg" xmlns:xlink="http://www.w3.org/1999/xlink" x="0" y="0" width="339" height="339" viewBox="0, 0, 339, 339">
  <g id="Layer_1">
    <path d="M181.549,2.989 L181.933,3.064 C192.849,8.909 192.849,16.045 196.061,86.228 L217.907,96.156 C219.262,128.447 220.35,160.759 220.5,193.084 C223.919,183.441 227.751,173.558 233.872,165.441 C235.803,162.88 238.218,159.962 241.446,159.486 C248.619,159.425 273.001,203.028 273.001,258.877 C272.945,265.628 272.911,272.399 272.356,279.129 L282.66,279.129 L282.66,271.266 L280.983,271.266 L280.983,269.36 L282.66,269.36 L282.66,266.263 C282.759,256.645 286.982,247.669 295.309,243.369 C296.59,242.708 297.982,242.322 299.318,241.798 L299.318,236.002 L301.889,236.002 L301.889,222.482 L304.461,222.482 L304.461,212.535 L306.687,212.551 L306.749,199.632 L306.811,199.698 L306.687,212.551 L308.485,212.535 L308.485,222.482 L311.057,222.482 L311.057,236.002 L313.628,236.002 L313.628,241.964 C324.065,246.044 329.807,254.432 330.286,266.263 L330.286,269.36 L331.963,269.36 L331.963,271.266 L330.286,271.266 L330.286,279.129 L338,279.129 L338,308.453 L269.06,308.453 L269.06,307.824 L268.992,308.243 L54.507,308.453 L54.507,308.453 L6.736,308.453 L6.736,281.634 L6.688,279.641" fill-opacity="0" stroke="#FFFFFF" stroke-width="1"/>
    <path d="M6.688,279.641 L6.736,277.772 L6.736,237.984 L4.22,237.984 L4.22,227.874 L1.911,227.874 L1.911,192.368 L4.22,192.368 L4.22,185.954 L7.519,185.954 L7.559,179.147 L5.869,178.077 L19.23,155.128 L19.369,155.128 L19.564,140.894 L17.794,140.894 L17.794,137.461 C18.788,137.451 18.998,137.299 19.063,137.23 C23.27,132.847 24.164,125.06 25.45,119.792 C27.164,112.77 28.826,102.943 30.198,95.835 L30.004,89.395 L27.068,89.395 L27.068,87.09 L30.004,87.09 L30.004,81.821 L31.24,81.821 L31.24,87.09 L34.175,87.09 L34.175,89.395 L31.24,89.395 L31.24,95.617 C33.02,106.293 33.29,108.162 35.579,119.697 C36.229,122.971 38.988,135.201 41.611,137.329 C41.949,137.603 42.536,137.538 42.536,137.505 L43.45,137.461 L43.45,140.894 L42.354,140.894 L42.352,155.757 L55.374,178.077 L53.893,179.028 L53.725,185.954 L57.024,185.954 L57.024,192.368 L59.333,192.368 L59.333,227.874 L57.024,227.874 L57.024,237.984 L54.508,237.984 L54.361,251.447 L57.206,251.447 L57.265,242.564 L66.234,242.63 L66.269,188.592 L68.518,188.592 L68.518,178.077 L78.156,178.077 L78.156,171.722 L82.975,171.722 L82.975,137.923 L85.545,137.923 L85.698,99.899 L85.575,100.294 L85.575,137.998 L98.717,137.923 L98.717,152.136 L103.215,152.136 L103.215,165.193 L112.21,165.193 L112.21,237.984 L118.314,237.984 L118.314,153.732 L127.31,153.732 L127.31,135.79 L154.296,135.79 L154.296,66.371 C171.115,50.306 163.432,57.527 177.291,44.639 L180.961,3.378 C181.165,3.132 181.003,3.307 181.55,2.989 L181.55,2.989" fill-opacity="0" stroke="#FFFFFF" stroke-width="1"/>
    <path d="M14.171,222.483 C10.661,222.483 7.815,216.938 7.815,210.098 C7.815,203.258 10.661,197.714 14.171,197.714 C17.682,197.714 20.528,203.258 20.528,210.098 C20.528,216.938 17.682,222.483 14.171,222.483 z" fill-opacity="0" stroke="#FFFFFF" stroke-width="1"/>
    <path d="M44.234,221.899 C39.648,221.899 35.931,216.144 35.931,209.043 C35.931,201.943 39.648,196.187 44.234,196.187 C48.819,196.187 52.536,201.943 52.536,209.043 C52.536,216.144 48.819,221.899 44.234,221.899 z" fill-opacity="0" stroke="#FFFFFF" stroke-width="1"/>
    <path d="M197.369,150.187" fill-opacity="0" stroke="#FFFFFF" stroke-width="1"/>
    <path d="M181.984,4.785 C191.695,8.938 189.902,35.963 189.902,35.963 C189.902,35.963 156.454,67.596 156.454,67.596" fill-opacity="0" stroke="#FFFFFF" stroke-width="1"/>
    <path d="M213.401,97.867 C213.401,97.867 184.085,131.477 184.085,131.477 C184.085,131.477 180.446,133.747 180.446,145.216 C180.446,156.685 180.446,305.131 180.446,305.131" fill-opacity="0" stroke="#FFFFFF" stroke-width="1"/>
    <path d="M241.446,360" fill-opacity="0" stroke="#F80000" stroke-width="1"/>
    <path d="M211.604,305.126 C205.68,206.501 232.078,175.245 239.005,165.193" fill-opacity="0" stroke="#FFFFFF" stroke-width="1"/>
  </g>
</svg>
