<?xml version="1.0" encoding="UTF-8"?>
<!DOCTYPE svg PUBLIC "-//W3C//DTD SVG 1.1//EN" "http://www.w3.org/Graphics/SVG/1.1/DTD/svg11.dtd">
<svg version="1.1" xmlns="http://www.w3.org/2000/svg" xmlns:xlink="http://www.w3.org/1999/xlink" x="0" y="0" width="200" height="200" viewBox="0, 0, 200, 200">
  <g id="Layer_1">
    <path d="M20.5,4.5 C20.5,4.5 180.5,4.5 180.5,4.5 C189.337,4.5 196.5,11.664 196.5,20.5 C196.5,20.5 196.5,180.5 196.5,180.5 C196.5,189.337 189.337,196.5 180.5,196.5 C180.5,196.5 20.5,196.5 20.5,196.5 C11.664,196.5 4.5,189.337 4.5,180.5 C4.5,180.5 4.5,20.5 4.5,20.5 C4.5,11.664 11.664,4.5 20.5,4.5 z" fill-opacity="0" stroke="#FFFFFF" stroke-width="0.5"/>
    <path d="M180.5,4.5 C189.337,4.5 196.5,11.663 196.5,20.5 L196.5,47.167 C196.5,47.167 4.5,47.167 4.5,47.167 L4.5,20.5 C4.5,11.663 11.664,4.5 20.5,4.5 C20.5,4.5 180.5,4.5 180.5,4.5 z z" fill-opacity="0" stroke="#FFFFFF" stroke-width="0.5"/>
    <path d="M25.834,15.167 C31.724,15.167 36.5,19.942 36.5,25.833 C36.5,31.724 31.724,36.5 25.834,36.5 C19.942,36.5 15.167,31.724 15.167,25.833 C15.167,19.942 19.942,15.167 25.834,15.167 z" fill-opacity="0" stroke="#FFFFFF" stroke-width="0.5"/>
    <path d="M57.833,15.167 C63.724,15.167 68.5,19.942 68.5,25.833 C68.5,31.724 63.724,36.5 57.833,36.5 C51.942,36.5 47.167,31.724 47.167,25.833 C47.167,19.942 51.942,15.167 57.833,15.167 z" fill-opacity="0" stroke="#FFFFFF" stroke-width="0.5"/>
    <path d="M89.833,15.167 C95.725,15.167 100.5,19.942 100.5,25.833 C100.5,31.724 95.725,36.5 89.833,36.5 C83.942,36.5 79.167,31.724 79.167,25.833 C79.167,19.942 83.942,15.167 89.833,15.167 z" fill-opacity="0" stroke="#FFFFFF" stroke-width="0.5"/>
    <path d="M17.834,60.5 C17.834,60.5 183.167,60.5 183.167,60.5 C183.167,60.5 183.167,183.167 183.167,183.167 C183.167,183.167 17.834,183.167 17.834,183.167 C17.834,183.167 17.834,60.5 17.834,60.5 z" fill-opacity="0" stroke="#FFFFFF" stroke-width="0.5"/>
  </g>
</svg>
