<?xml version="1.0" encoding="UTF-8"?>
<!DOCTYPE svg PUBLIC "-//W3C//DTD SVG 1.1//EN" "http://www.w3.org/Graphics/SVG/1.1/DTD/svg11.dtd">
<svg version="1.1" xmlns="http://www.w3.org/2000/svg" xmlns:xlink="http://www.w3.org/1999/xlink" x="0" y="0" width="200" height="200" viewBox="0, 0, 200, 200">
  <g id="Layer_1">
    <path d="M182.5,112.267 C182.5,112.267 182.5,88.733 182.5,88.733 C182.5,88.733 160.232,83.668 160.232,83.668 C158.89,78.91 157.019,74.382 154.645,70.161 C154.645,70.161 166.804,50.839 166.804,50.839 C166.804,50.839 150.161,34.196 150.161,34.196 C150.161,34.196 130.842,46.356 130.842,46.356 C126.618,43.978 122.09,42.108 117.332,40.766 C117.332,40.766 112.267,18.5 112.267,18.5 C112.267,18.5 88.733,18.5 88.733,18.5 C88.733,18.5 83.668,40.766 83.668,40.766 C78.91,42.108 74.382,43.978 70.158,46.356 C70.158,46.356 50.836,34.196 50.836,34.196 C50.836,34.196 34.196,50.839 34.196,50.839 C34.196,50.839 46.355,70.161 46.355,70.161 C43.981,74.382 42.11,78.91 40.768,83.668 C40.768,83.668 18.5,88.733 18.5,88.733 C18.5,88.733 18.5,112.267 18.5,112.267 C18.5,112.267 40.768,117.332 40.768,117.332 C42.11,122.09 43.981,126.618 46.355,130.839 C46.355,130.839 34.196,150.161 34.196,150.161 C34.196,150.161 50.836,166.804 50.836,166.804 C50.836,166.804 70.158,154.645 70.158,154.645 C74.382,157.022 78.91,158.892 83.668,160.235 C83.668,160.235 88.733,182.5 88.733,182.5 C88.733,182.5 112.267,182.5 112.267,182.5 C112.267,182.5 117.332,160.235 117.332,160.235 C122.09,158.892 126.618,157.022 130.842,154.645 C130.842,154.645 150.161,166.804 150.161,166.804 C150.161,166.804 166.804,150.161 166.804,150.161 C166.804,150.161 154.645,130.839 154.645,130.839 C157.019,126.618 158.89,122.09 160.232,117.332 C160.232,117.332 182.5,112.267 182.5,112.267 z" fill-opacity="0" stroke="#FFFFFF" stroke-width="1"/>
    <path d="M100.5,59.485 C123.152,59.485 141.515,77.848 141.515,100.5 C141.515,123.152 123.152,141.515 100.5,141.515 C77.848,141.515 59.485,123.152 59.485,100.5 C59.485,77.848 77.848,59.485 100.5,59.485 z" fill-opacity="0" stroke="#FFFFFF" stroke-width="1"/>
    <path d="M149.5,40.5 L149.5,40.5" fill-opacity="0" stroke="#FFFFFF" stroke-width="1" stroke-linecap="round" stroke-linejoin="round"/>
  </g>
</svg>
