<?xml version="1.0" encoding="UTF-8"?>
<!DOCTYPE svg PUBLIC "-//W3C//DTD SVG 1.1//EN" "http://www.w3.org/Graphics/SVG/1.1/DTD/svg11.dtd">
<svg version="1.1" xmlns="http://www.w3.org/2000/svg" xmlns:xlink="http://www.w3.org/1999/xlink" x="0" y="0" width="460" height="339" viewBox="0, 0, 460, 339">
  <g id="Layer_1">
    <g>
      <path d="M296.674,250.279 L296.674,250.283 L296.674,250.283 L296.674,250.279 z" fill-opacity="0" stroke="#FFFFFF" stroke-width="1"/>
      <path d="M296.674,250.279 L296.674,250.283 L296.674,250.283 L296.674,250.279 z" fill-opacity="0" stroke="#FFFFFF" stroke-width="0.25"/>
    </g>
    <path d="M454.779,224.286 L454.779,227.93 L346.531,226.691 L346.531,250.281 L296.673,250.281 L296.673,250.279 L296.516,243.626 C294.793,233.111 278.331,229.994 270.665,228.216 L270.664,228.215 C260.336,227.557 250.046,225.992 239.696,225.757 L239.696,222.023 L304.69,222.89 L305.471,222.9 L239.696,222.023 L239.696,222.023 L305.471,222.9 L305.471,154.361 L302.438,154.361 L302.438,150.452 L303.712,150.452 L303.712,148.208 L173.995,148.208 L173.995,150.451 L175.27,150.451 L175.27,154.361 L172.235,154.361 L172.235,221.122 L172.236,221.122 L238.011,222 L238.011,225.719 L236.382,225.682 L231.293,225.786 C223.623,226.001 215.993,226.975 208.375,227.942 L208.374,227.941 C200.484,229.867 183.125,232.517 181.258,243.627 L181.257,250.281 L131.177,250.281 L131.177,224.6 L6.08,223.357 L6.08,219.232 L139.975,220.693 L139.975,220.693 L139.975,154.361 L136.941,154.361 L136.941,150.451 L138.216,150.451 L138.216,127.696 L136.941,127.696 L136.941,123.786 L138.216,123.786 L138.216,119.615 L139.893,119.615 L143.123,105.216 L142.243,105.216 L142.243,103.367 L143.375,103.367 L143.375,98.64 L144.246,98.64 L144.246,103.367 L145.378,103.367 L145.378,105.216 L144.351,105.216 L147.257,117.579 L148.856,106.729 L148.426,106.729 L148.426,105.357 L148.978,105.357 L148.978,101.852 L149.403,101.852 L149.403,105.357 L149.954,105.357 L149.954,106.729 L149.454,106.729 L151.162,117.791 L155.618,98.653 L154.376,98.653 L154.376,96.14 L155.973,96.14 L155.973,89.717 L157.201,89.717 L157.201,96.14 L158.798,96.14 L158.798,98.653 L157.35,98.653 L161.947,117.503 L163.535,106.729 L163.105,106.729 L163.105,105.357 L163.657,105.357 L163.657,101.852 L164.081,101.852 L164.081,105.357 L164.633,105.357 L164.633,106.729 L164.132,106.729 L165.81,117.595 L168.588,105.216 L167.707,105.216 L167.707,103.367 L168.839,103.367 L168.839,98.64 L169.71,98.64 L169.71,103.367 L170.843,103.367 L170.843,105.216 L169.815,105.216 L173.199,119.615 L173.995,119.615 L173.995,123.004 L174.065,123.302 L173.995,123.302 L173.995,123.786 L175.27,123.786 L175.27,127.696 L173.995,127.696 L173.995,134.324 L221.68,134.324 L221.68,131.294 C220.997,132.303 219.795,132.474 218.767,132.563 L223.316,121.16 L223.365,134.324 L232.419,134.324 L232.419,132.562 L234.104,132.562 L234.104,134.324 L237.917,134.324 L237.917,129.812 L239.603,129.812 L239.603,134.324 L243.086,134.324 L243.086,132.562 L244.772,132.562 L244.772,134.324 L256.286,134.324 L256.103,134.13 L256.103,132.076 C255.42,133.086 254.218,133.257 253.191,133.346 L257.739,121.943 L257.785,134.324 L303.712,134.324 L303.712,127.696 L302.438,127.696 L302.438,123.787 L303.712,123.787 L303.712,119.616 L305.39,119.616 L308.62,105.216 L307.74,105.216 L307.74,103.368 L308.872,103.368 L308.872,98.64 L309.743,98.64 L309.743,103.368 L310.875,103.368 L310.875,105.216 L309.848,105.216 L312.753,117.579 L314.352,106.729 L313.923,106.729 L313.923,105.357 L314.475,105.357 L314.475,101.852 L314.899,101.852 L314.899,105.357 L315.451,105.357 L315.451,106.729 L314.951,106.729 L316.658,117.791 L316.659,117.791 L321.115,98.653 L319.873,98.653 L319.873,96.14 L321.469,96.14 L321.469,89.717 L322.698,89.717 L322.698,96.14 L324.295,96.14 L324.295,98.653 L322.846,98.653 L327.444,117.503 L329.032,106.729 L328.602,106.729 L328.602,105.357 L329.154,105.357 L329.154,101.852 L329.578,101.852 L329.578,105.357 L330.13,105.357 L330.13,106.729 L329.629,106.729 L331.307,117.596 L334.085,105.216 L333.203,105.216 L333.203,103.368 L334.335,103.368 L334.335,98.64 L335.207,98.64 L335.207,103.368 L336.34,103.368 L336.34,105.216 L335.312,105.216 L338.696,119.616 L339.492,119.616 L339.492,123.004 L339.562,123.302 L339.492,123.302 L339.492,123.787 L340.767,123.787 L340.767,127.696 L339.492,127.696 L339.492,150.452 L340.767,150.452 L340.767,154.361 L337.732,154.361 L337.732,223.331 L454.92,224.241" fill-opacity="0" stroke="#FFFFFF" stroke-width="1"/>
    <path d="M168.589,105.216 L165.81,117.595 L167.806,108.703 L165.81,117.596 L168.589,105.216" fill-opacity="0" stroke="#FFFFFF" stroke-width="1"/>
    <path d="M279.53,222.554 L300.634,222.836 L302.013,222.854 L304.699,222.89 L304.69,222.89 L302.013,222.854 L279.53,222.554 z" fill-opacity="0" stroke="#FFFFFF" stroke-width="0.25"/>
    <g>
      <path d="M346.531,250.283 L346.531,226.693 L346.531,226.693 L346.531,250.283 L346.531,250.283 z" fill-opacity="0" stroke="#FFFFFF" stroke-width="1"/>
      <path d="M346.531,250.283 L346.531,226.693 L346.531,226.693 L346.531,250.283 L346.531,250.283 z" fill-opacity="0" stroke="#FFFFFF" stroke-width="0.25"/>
    </g>
    <g>
      <path d="M340.767,123.788 L340.767,127.697 L339.493,127.697 L339.493,150.453 L339.492,150.453 L339.492,127.697 L340.767,127.697 L340.767,123.788 L340.767,123.788 z" fill-opacity="0" stroke="#FFFFFF" stroke-width="1"/>
      <path d="M340.767,123.788 L340.767,127.697 L339.493,127.697 L339.493,150.453 L339.492,150.453 L339.492,127.697 L340.767,127.697 L340.767,123.788 L340.767,123.788 z" fill-opacity="0" stroke="#FFFFFF" stroke-width="1"/>
    </g>
    <g>
      <path d="M257.74,121.944 L257.786,134.325 L257.785,134.325 L257.739,121.944 L257.74,121.944 z" fill-opacity="0" stroke="#FFFFFF" stroke-width="1"/>
      <path d="M257.74,121.944 L257.786,134.325 L257.785,134.325 L257.739,121.944 L257.74,121.944 z" fill-opacity="0" stroke="#FFFFFF" stroke-width="0.25"/>
    </g>
    <g>
      <path d="M244.772,132.562 L244.772,134.324 L244.772,134.324 L244.772,132.562 L244.772,132.562 z" fill-opacity="0" stroke="#FFFFFF" stroke-width="1"/>
      <path d="M244.772,132.562 L244.772,134.324 L244.772,134.324 L244.772,132.562 L244.772,132.562 z" fill-opacity="0" stroke="#FFFFFF" stroke-width="0.25"/>
    </g>
    <g>
      <path d="M239.603,129.812 L239.603,134.324 L239.603,134.324 L239.603,129.812 L239.603,129.812 z" fill-opacity="0" stroke="#FFFFFF" stroke-width="1"/>
      <path d="M239.603,129.812 L239.603,134.324 L239.603,134.324 L239.603,129.812 L239.603,129.812 z" fill-opacity="0" stroke="#FFFFFF" stroke-width="0.25"/>
    </g>
    <g>
      <path d="M234.104,132.562 L234.104,134.324 L234.104,134.324 L234.104,132.562 L234.104,132.562 z" fill-opacity="0" stroke="#FFFFFF" stroke-width="1"/>
      <path d="M234.104,132.562 L234.104,134.324 L234.104,134.324 L234.104,132.562 L234.104,132.562 z" fill-opacity="0" stroke="#FFFFFF" stroke-width="0.25"/>
    </g>
    <g>
      <path d="M223.316,121.161 L223.365,134.325 L223.365,134.325 L223.316,121.162 L223.316,121.161 z" fill-opacity="0" stroke="#FFFFFF" stroke-width="1"/>
      <path d="M223.316,121.161 L223.365,134.325 L223.365,134.325 L223.316,121.162 L223.316,121.161 z" fill-opacity="0" stroke="#FFFFFF" stroke-width="0.25"/>
    </g>
    <g>
      <path d="M221.081,131.906 L221.68,131.294 L221.68,131.294 C220.684,132.311 221.336,131.811 219.56,132.469 L221.081,131.906 z" fill-opacity="0" stroke="#FFFFFF" stroke-width="1"/>
      <path d="M221.081,131.906 L221.68,131.294 L221.68,131.294 C220.684,132.311 221.336,131.811 219.56,132.469 L221.081,131.906 z" fill-opacity="0" stroke="#FFFFFF" stroke-width="0.25"/>
    </g>
    <g>
      <path d="M339.493,119.616 L339.493,123.004 L339.562,123.303 L339.493,123.303 L339.493,123.788 L339.492,123.788 L339.492,123.303 L339.562,123.303 L339.492,123.004 L339.492,119.616 L339.493,119.616 z" fill-opacity="0" stroke="#FFFFFF" stroke-width="1"/>
      <path d="M339.493,119.616 L339.493,123.004 L339.562,123.303 L339.493,123.303 L339.493,123.788 L339.492,123.788 L339.492,123.303 L339.562,123.303 L339.492,123.004 L339.492,119.616 L339.493,119.616 z" fill-opacity="0" stroke="#FFFFFF" stroke-width="0.25"/>
    </g>
    <g>
      <path d="M336.34,103.368 L336.34,105.218 L335.312,105.218 L338.697,119.616 L338.696,119.616 L335.312,105.218 L336.34,105.218 L336.34,103.368 L336.34,103.368 z" fill-opacity="0" stroke="#FFFFFF" stroke-width="1"/>
      <path d="M336.34,103.368 L336.34,105.218 L335.312,105.218 L338.697,119.616 L338.696,119.616 L335.312,105.218 L336.34,105.218 L336.34,103.368 L336.34,103.368 z" fill-opacity="0" stroke="#FFFFFF" stroke-width="0.25"/>
    </g>
    <g>
      <path d="M329.579,105.358 L329.578,105.358 L329.578,101.853 L329.579,101.853 L329.579,105.358 z" fill-opacity="0" stroke="#FFFFFF" stroke-width="1"/>
      <path d="M329.579,105.358 L329.578,105.358 L329.578,101.853 L329.579,101.853 L329.579,105.358 z" fill-opacity="0" stroke="#FFFFFF" stroke-width="0.25"/>
    </g>
    <g>
      <path d="M314.9,105.358 L314.9,105.358 L314.9,101.853 L314.9,101.853 L314.9,105.358 z" fill-opacity="0" stroke="#FFFFFF" stroke-width="1"/>
      <path d="M314.9,105.358 L314.9,105.358 L314.9,101.853 L314.9,101.853 L314.9,105.358 z" fill-opacity="0" stroke="#FFFFFF" stroke-width="0.25"/>
    </g>
    <g>
      <path d="M164.082,105.358 L164.081,105.358 L164.081,101.852 L164.082,101.852 L164.082,105.358 z" fill-opacity="0" stroke="#FFFFFF" stroke-width="1"/>
      <path d="M164.082,105.358 L164.081,105.358 L164.081,101.852 L164.082,101.852 L164.082,105.358 z" fill-opacity="0" stroke="#FFFFFF" stroke-width="0.25"/>
    </g>
    <g>
      <path d="M149.403,105.358 L149.403,105.358 L149.403,101.852 L149.403,101.852 L149.403,105.358 z" fill-opacity="0" stroke="#FFFFFF" stroke-width="1"/>
      <path d="M149.403,105.358 L149.403,105.358 L149.403,101.852 L149.403,101.852 L149.403,105.358 z" fill-opacity="0" stroke="#FFFFFF" stroke-width="0.25"/>
    </g>
    <g>
      <path d="M335.207,103.368 L335.207,103.368 L335.207,98.64 L335.207,98.64 L335.207,103.368 z" fill-opacity="0" stroke="#FFFFFF" stroke-width="1"/>
      <path d="M335.207,103.368 L335.207,103.368 L335.207,98.64 L335.207,98.64 L335.207,103.368 z" fill-opacity="0" stroke="#FFFFFF" stroke-width="0.25"/>
    </g>
    <g>
      <path d="M309.743,103.368 L309.743,103.368 L309.743,98.64 L309.743,98.64 L309.743,103.368 z" fill-opacity="0" stroke="#FFFFFF" stroke-width="1"/>
      <path d="M309.743,103.368 L309.743,103.368 L309.743,98.64 L309.743,98.64 L309.743,103.368 z" fill-opacity="0" stroke="#FFFFFF" stroke-width="0.25"/>
    </g>
    <g>
      <path d="M169.71,103.368 L169.71,103.368 L169.71,98.64 L169.71,98.64 L169.71,103.368 z" fill-opacity="0" stroke="#FFFFFF" stroke-width="1"/>
      <path d="M169.71,103.368 L169.71,103.368 L169.71,98.64 L169.71,98.64 L169.71,103.368 z" fill-opacity="0" stroke="#FFFFFF" stroke-width="0.25"/>
    </g>
    <g>
      <path d="M144.246,103.368 L144.246,103.368 L144.246,98.64 L144.246,98.64 L144.246,103.368 z" fill-opacity="0" stroke="#FFFFFF" stroke-width="1"/>
      <path d="M144.246,103.368 L144.246,103.368 L144.246,98.64 L144.246,98.64 L144.246,103.368 z" fill-opacity="0" stroke="#FFFFFF" stroke-width="0.25"/>
    </g>
    <g>
      <path d="M322.699,96.141 L322.698,96.141 L322.698,89.717 L322.699,89.717 L322.699,96.141 z" fill-opacity="0" stroke="#FFFFFF" stroke-width="1"/>
      <path d="M322.699,96.141 L322.698,96.141 L322.698,89.717 L322.699,89.717 L322.699,96.141 z" fill-opacity="0" stroke="#FFFFFF" stroke-width="0.25"/>
    </g>
    <g>
      <path d="M157.202,96.141 L157.202,96.141 L157.202,89.717 L157.202,89.717 L157.202,96.141 z" fill-opacity="0" stroke="#FFFFFF" stroke-width="1"/>
      <path d="M157.202,96.141 L157.202,96.141 L157.202,89.717 L157.202,89.717 L157.202,96.141 z" fill-opacity="0" stroke="#FFFFFF" stroke-width="0.25"/>
    </g>
    <g>
      <path d="M256.104,132.077 L256.104,132.077 L255.505,132.688 L256.104,132.077 z" fill-opacity="0" stroke="#FFFFFF" stroke-width="1"/>
      <path d="M256.104,132.077 L256.104,132.077 L255.505,132.688 L256.104,132.077 z" fill-opacity="0" stroke="#FFFFFF" stroke-width="0.25"/>
    </g>
    <g>
      <path d="M131.177,224.6 L131.177,250.281 L131.177,250.281 L131.177,224.6 L6.08,223.356 L131.177,224.6 z" fill-opacity="0" stroke="#FFFFFF" stroke-width="1"/>
      <path d="M131.177,224.6 L131.177,250.281 L131.177,250.281 L131.177,224.6 L6.08,223.356 L131.177,224.6 z" fill-opacity="0" stroke="#FFFFFF" stroke-width="0.25"/>
    </g>
    <g>
      <path d="M139.975,154.362 L139.975,154.362 L139.975,220.693 L139.975,220.693 L139.975,154.362 z" fill-opacity="0" stroke="#FFFFFF" stroke-width="1"/>
      <path d="M139.975,154.362 L139.975,154.362 L139.975,220.693 L139.975,220.693 L139.975,154.362 z" fill-opacity="0" stroke="#FFFFFF" stroke-width="0.25"/>
    </g>
    <g>
      <path d="M136.941,154.361 L136.941,154.361 L136.941,150.452 L136.941,150.452 L136.941,154.361 z" fill-opacity="0" stroke="#FFFFFF" stroke-width="1"/>
      <path d="M136.941,154.361 L136.941,154.361 L136.941,150.452 L136.941,150.452 L136.941,154.361 z" fill-opacity="0" stroke="#FFFFFF" stroke-width="0.25"/>
    </g>
    <g>
      <path d="M138.216,127.697 L138.216,127.697 L138.216,150.452 L138.216,150.452 L138.216,127.697 z" fill-opacity="0" stroke="#FFFFFF" stroke-width="1"/>
      <path d="M138.216,127.697 L138.216,127.697 L138.216,150.452 L138.216,150.452 L138.216,127.697 z" fill-opacity="0" stroke="#FFFFFF" stroke-width="0.25"/>
    </g>
    <g>
      <path d="M221.68,131.294 L221.68,134.325 L221.68,134.325 L221.68,131.294 L221.68,131.294 z" fill-opacity="0" stroke="#FFFFFF" stroke-width="1"/>
      <path d="M221.68,131.294 L221.68,134.325 L221.68,134.325 L221.68,131.294 L221.68,131.294 z" fill-opacity="0" stroke="#FFFFFF" stroke-width="0.25"/>
    </g>
    <g>
      <path d="M232.419,132.562 L232.419,134.324 L232.419,134.324 L232.419,132.562 L232.419,132.562 z" fill-opacity="0" stroke="#FFFFFF" stroke-width="1"/>
      <path d="M232.419,132.562 L232.419,134.324 L232.419,134.324 L232.419,132.562 L232.419,132.562 z" fill-opacity="0" stroke="#FFFFFF" stroke-width="0.25"/>
    </g>
    <g>
      <path d="M237.918,129.812 L237.918,134.324 L237.918,134.324 L237.918,129.812 L237.918,129.812 z" fill-opacity="0" stroke="#FFFFFF" stroke-width="1"/>
      <path d="M237.918,129.812 L237.918,134.324 L237.918,134.324 L237.918,129.812 L237.918,129.812 z" fill-opacity="0" stroke="#FFFFFF" stroke-width="0.25"/>
    </g>
    <g>
      <path d="M243.087,132.562 L243.087,134.324 L243.087,134.324 L243.087,132.562 L243.087,132.562 z" fill-opacity="0" stroke="#FFFFFF" stroke-width="1"/>
      <path d="M243.087,132.562 L243.087,134.324 L243.087,134.324 L243.087,132.562 L243.087,132.562 z" fill-opacity="0" stroke="#FFFFFF" stroke-width="0.25"/>
    </g>
    <g>
      <path d="M256.104,132.077 L256.104,134.131 L256.286,134.325 L256.104,134.131 L256.104,132.077 L256.104,132.077 z" fill-opacity="0" stroke="#FFFFFF" stroke-width="1"/>
      <path d="M256.104,132.077 L256.104,134.131 L256.286,134.325 L256.104,134.131 L256.104,132.077 L256.104,132.077 z" fill-opacity="0" stroke="#FFFFFF" stroke-width="0.25"/>
    </g>
    <g>
      <path d="M257.739,121.944 L257.739,121.944 L253.191,133.346 L257.739,121.944 z" fill-opacity="0" stroke="#FFFFFF" stroke-width="1"/>
      <path d="M257.739,121.944 L257.739,121.944 L253.191,133.346 L257.739,121.944 z" fill-opacity="0" stroke="#FFFFFF" stroke-width="0.25"/>
    </g>
    <g>
      <path d="M223.316,121.16 L223.316,121.161 L218.768,132.562 L223.316,121.16 z" fill-opacity="0" stroke="#FFFFFF" stroke-width="1"/>
      <path d="M223.316,121.16 L223.316,121.161 L218.768,132.562 L223.316,121.16 z" fill-opacity="0" stroke="#FFFFFF" stroke-width="0.25"/>
    </g>
    <g>
      <path d="M143.124,105.217 L139.894,119.616 L138.216,119.616 L138.216,123.788 L136.941,123.788 L136.941,127.697 L136.941,127.697 L136.941,123.788 L138.216,123.788 L138.216,119.616 L139.893,119.616 L143.124,105.217 L143.124,105.217 z" fill-opacity="0" stroke="#FFFFFF" stroke-width="1"/>
      <path d="M143.124,105.217 L139.894,119.616 L138.216,119.616 L138.216,123.788 L136.941,123.788 L136.941,127.697 L136.941,127.697 L136.941,123.788 L138.216,123.788 L138.216,119.616 L139.893,119.616 L143.124,105.217 L143.124,105.217 z" fill-opacity="0" stroke="#FFFFFF" stroke-width="0.25"/>
    </g>
    <g>
      <path d="M334.084,105.217 L334.085,105.217 L331.307,117.596 L334.084,105.217 z" fill-opacity="0" stroke="#FFFFFF" stroke-width="1"/>
      <path d="M334.084,105.217 L334.085,105.217 L331.307,117.596 L334.084,105.217 z" fill-opacity="0" stroke="#FFFFFF" stroke-width="0.25"/>
    </g>
    <g>
      <path d="M329.154,101.853 L329.154,105.359 L328.602,105.359 L328.602,106.73 L328.602,106.73 L328.602,105.359 L329.154,105.359 L329.154,101.853 L329.154,101.853 z" fill-opacity="0" stroke="#FFFFFF" stroke-width="1"/>
      <path d="M329.154,101.853 L329.154,105.359 L328.602,105.359 L328.602,106.73 L328.602,106.73 L328.602,105.359 L329.154,105.359 L329.154,101.853 L329.154,101.853 z" fill-opacity="0" stroke="#FFFFFF" stroke-width="0.25"/>
    </g>
    <g>
      <path d="M314.475,105.358 L314.475,101.853 L314.476,101.853 L314.476,105.358 L314.475,105.358 z" fill-opacity="0" stroke="#FFFFFF" stroke-width="1"/>
      <path d="M314.475,105.358 L314.475,101.853 L314.476,101.853 L314.476,105.358 L314.475,105.358 z" fill-opacity="0" stroke="#FFFFFF" stroke-width="0.25"/>
    </g>
    <g>
      <path d="M163.105,106.729 L163.105,106.729 L163.105,105.358 L163.105,105.358 L163.105,106.729 z" fill-opacity="0" stroke="#FFFFFF" stroke-width="1"/>
      <path d="M163.105,106.729 L163.105,106.729 L163.105,105.358 L163.105,105.358 L163.105,106.729 z" fill-opacity="0" stroke="#FFFFFF" stroke-width="0.25"/>
    </g>
    <g>
      <path d="M148.427,106.729 L148.426,106.729 L148.426,105.358 L148.427,105.358 L148.427,106.729 z" fill-opacity="0" stroke="#FFFFFF" stroke-width="1"/>
      <path d="M148.427,106.729 L148.426,106.729 L148.426,105.358 L148.427,105.358 L148.427,106.729 z" fill-opacity="0" stroke="#FFFFFF" stroke-width="0.25"/>
    </g>
    <g>
      <path d="M163.657,101.852 L163.657,105.358 L163.657,105.358 L163.657,101.852 L163.657,101.852 z" fill-opacity="0" stroke="#FFFFFF" stroke-width="1"/>
      <path d="M163.657,101.852 L163.657,105.358 L163.657,105.358 L163.657,101.852 L163.657,101.852 z" fill-opacity="0" stroke="#FFFFFF" stroke-width="0.25"/>
    </g>
    <g>
      <path d="M148.979,101.852 L148.979,105.358 L148.979,105.358 L148.979,101.852 L148.979,101.852 z" fill-opacity="0" stroke="#FFFFFF" stroke-width="1"/>
      <path d="M148.979,101.852 L148.979,105.358 L148.979,105.358 L148.979,101.852 L148.979,101.852 z" fill-opacity="0" stroke="#FFFFFF" stroke-width="0.25"/>
    </g>
    <g>
      <path d="M333.204,103.367 L333.204,105.217 L333.204,105.217 L333.204,103.367 L333.204,103.367 z" fill-opacity="0" stroke="#FFFFFF" stroke-width="1"/>
      <path d="M333.204,103.367 L333.204,105.217 L333.204,105.217 L333.204,103.367 L333.204,103.367 z" fill-opacity="0" stroke="#FFFFFF" stroke-width="0.25"/>
    </g>
    <g>
      <path d="M307.74,103.367 L307.74,105.217 L307.74,105.217 L307.74,103.367 L307.74,103.367 z" fill-opacity="0" stroke="#FFFFFF" stroke-width="1"/>
      <path d="M307.74,103.367 L307.74,105.217 L307.74,105.217 L307.74,103.367 L307.74,103.367 z" fill-opacity="0" stroke="#FFFFFF" stroke-width="0.25"/>
    </g>
    <g>
      <path d="M167.707,105.217 L167.707,105.217 L167.707,103.368 L167.707,103.368 L167.707,105.217 z" fill-opacity="0" stroke="#FFFFFF" stroke-width="1"/>
      <path d="M167.707,105.217 L167.707,105.217 L167.707,103.368 L167.707,103.368 L167.707,105.217 z" fill-opacity="0" stroke="#FFFFFF" stroke-width="0.25"/>
    </g>
    <g>
      <path d="M142.243,105.217 L142.243,105.217 L142.243,103.368 L142.243,103.368 L142.243,105.217 z" fill-opacity="0" stroke="#FFFFFF" stroke-width="1"/>
      <path d="M142.243,105.217 L142.243,105.217 L142.243,103.368 L142.243,103.368 L142.243,105.217 z" fill-opacity="0" stroke="#FFFFFF" stroke-width="0.25"/>
    </g>
    <g>
      <path d="M143.375,98.64 L143.375,103.368 L143.375,103.368 L143.375,98.64 L143.375,98.64 z" fill-opacity="0" stroke="#FFFFFF" stroke-width="1"/>
      <path d="M143.375,98.64 L143.375,103.368 L143.375,103.368 L143.375,98.64 L143.375,98.64 z" fill-opacity="0" stroke="#FFFFFF" stroke-width="0.25"/>
    </g>
    <g>
      <path d="M321.469,89.718 L321.469,96.141 L319.873,96.141 L319.873,98.655 L319.873,98.655 L319.873,96.141 L321.469,96.141 L321.469,89.718 L321.469,89.718 z" fill-opacity="0" stroke="#FFFFFF" stroke-width="1"/>
      <path d="M321.469,89.718 L321.469,96.141 L319.873,96.141 L319.873,98.655 L319.873,98.655 L319.873,96.141 L321.469,96.141 L321.469,89.718 L321.469,89.718 z" fill-opacity="0" stroke="#FFFFFF" stroke-width="0.25"/>
    </g>
    <g>
      <path d="M155.973,89.717 L155.973,96.141 L154.376,96.141 L154.376,98.654 L154.376,98.654 L154.376,96.141 L155.973,96.141 L155.973,89.717 L155.973,89.717 z" fill-opacity="0" stroke="#FFFFFF" stroke-width="1"/>
      <path d="M155.973,89.717 L155.973,96.141 L154.376,96.141 L154.376,98.654 L154.376,98.654 L154.376,96.141 L155.973,96.141 L155.973,89.717 L155.973,89.717 z" fill-opacity="0" stroke="#FFFFFF" stroke-width="0.25"/>
    </g>
    <path d="M338.086,154.362 C372.308,190.412 406.056,218.144 453.842,223.37" fill-opacity="0" stroke="#FFFFFF" stroke-width="1"/>
    <path d="M136.941,152.985 C94.373,195.488 67.003,219.744 9.503,219.249" fill-opacity="0" stroke="#FFFFFF" stroke-width="1"/>
  </g>
</svg>
