<?xml version="1.0" encoding="UTF-8"?>
<!DOCTYPE svg PUBLIC "-//W3C//DTD SVG 1.1//EN" "http://www.w3.org/Graphics/SVG/1.1/DTD/svg11.dtd">
<svg version="1.1" xmlns="http://www.w3.org/2000/svg" xmlns:xlink="http://www.w3.org/1999/xlink" x="0" y="0" width="500" height="500" viewBox="0, 0, 500, 500">
  <g id="Layer_1">
    <path d="M109.72,123.653 C150.807,122.317 340.59,120.982 377.764,122.985 C414.938,124.988 417.547,161.924 417.547,164.376 L417.539,222.691 C417.539,225.143 415.597,227.13 413.202,227.13 L67.328,226.463 C64.933,226.463 62.331,223.14 62.331,220.688 C62.331,220.688 62.763,220.454 62.763,194.418 C62.763,168.382 68.633,124.988 109.72,123.653 z" fill-opacity="0" stroke="#FFFFFF" stroke-width="2"/>
    <path d="M413.424,237.394 C417.094,237.41 418.176,240.18 417.811,243.591 C418.357,251.26 415.147,280.818 421.012,282.236 C444.875,288.008 444.5,313.051 444.5,315.503 L444.5,352.455 C444.5,354.906 442.759,357.151 440.365,357.073 C429,356.704 428.82,357.442 428.82,356.519 C428.819,331.447 410.005,307.292 389.114,307.292 C368.223,307.292 353.244,328.284 353.244,353.356 C353.302,356.094 353.228,354.916 353.395,356.894 L220.073,356.894 C220.167,355.784 220.099,356.671 220.151,354.224 C220.151,329.152 201.259,308.159 180.368,308.159 C159.477,308.159 144.498,329.152 144.498,354.224 C144.55,356.671 144.482,355.784 144.576,356.894 L59.487,356.894 C57.092,356.894 55.15,354.906 55.15,352.455 L55.15,350.652 C55.15,348.2 57.092,346.212 59.487,346.212 L62.324,346.212 L62.324,241.833 C62.324,239.382 64.266,237.394 66.661,237.394 C66.661,237.394 409.753,237.378 413.424,237.394 z" fill-opacity="0" stroke="#FFFFFF" stroke-width="3"/>
    <path d="M149.926,145.016 L199.948,145.016 C202.344,145.016 204.285,147.003 204.285,149.455 L204.285,177.294 C204.285,179.746 202.344,181.734 199.948,181.734 L149.926,181.734 C147.531,181.734 145.589,179.746 145.589,177.294 L145.589,149.455 C145.589,147.003 147.531,145.016 149.926,145.016 z" fill-opacity="0" stroke="#FFFFFF" stroke-width="3"/>
    <path d="M218.62,145.016 L268.643,145.016 C271.038,145.016 272.979,147.003 272.979,149.455 L272.979,177.294 C272.979,179.746 271.038,181.734 268.643,181.734 L218.62,181.734 C216.225,181.734 214.284,179.746 214.284,177.294 L214.284,149.455 C214.284,147.003 216.225,145.016 218.62,145.016 z" fill-opacity="0" stroke="#FFFFFF" stroke-width="3"/>
    <path d="M285.142,145.016 L335.165,145.016 C337.56,145.016 339.501,147.003 339.501,149.455 L339.501,177.294 C339.501,179.746 337.56,181.734 335.165,181.734 L285.142,181.734 C282.747,181.734 280.806,179.746 280.806,177.294 L280.806,149.455 C280.806,147.003 282.747,145.016 285.142,145.016 z" fill-opacity="0" stroke="#FFFFFF" stroke-width="3"/>
    <path d="M351.664,145.233 L397.982,144.799 C400.377,144.799 401.458,146.786 401.458,149.238 L406.023,177.511 C406.023,179.963 404.082,181.95 401.687,181.95 L351.664,181.95 C349.269,181.95 347.328,179.963 347.328,177.511 L347.328,149.672 C347.328,147.22 349.269,145.233 351.664,145.233 z" fill-opacity="0" stroke="#FFFFFF" stroke-width="3"/>
    <path d="M134.873,145.233 C134.873,145.233 102.436,144.876 94.731,144.799 C87.026,144.722 81.024,167.714 81.024,167.714 C81.024,170.166 77.111,181.734 88.198,181.734 L134.873,181.95 C136.948,181.95 138.631,179.963 138.631,177.511 L138.631,149.672 C138.631,147.22 136.948,145.233 134.873,145.233 z" fill-opacity="0" stroke="#FFFFFF" stroke-width="3"/>
    <path d="M149.926,250.292 L199.948,250.292 C202.344,250.292 204.285,252.279 204.285,254.731 L204.285,282.57 C204.285,285.022 202.344,287.01 199.948,287.01 L149.926,287.01 C147.531,287.01 145.589,285.022 145.589,282.57 L145.589,254.731 C145.589,252.279 147.531,250.292 149.926,250.292 z" fill-opacity="0" stroke="#FFFFFF" stroke-width="3"/>
    <path d="M218.62,250.292 L268.643,250.292 C271.038,250.292 272.979,252.279 272.979,254.731 L272.979,282.57 C272.979,285.022 271.038,287.01 268.643,287.01 L218.62,287.01 C216.225,287.01 214.284,285.022 214.284,282.57 L214.284,254.731 C214.284,252.279 216.225,250.292 218.62,250.292 z" fill-opacity="0" stroke="#FFFFFF" stroke-width="3"/>
    <path d="M285.142,250.292 L335.165,250.292 C337.56,250.292 339.501,252.279 339.501,254.731 L339.501,282.57 C339.501,285.022 337.56,287.01 335.165,287.01 L285.142,287.01 C282.747,287.01 280.806,285.022 280.806,282.57 L280.806,254.731 C280.806,252.279 282.747,250.292 285.142,250.292 z" fill-opacity="0" stroke="#FFFFFF" stroke-width="3"/>
    <path d="M356.737,244.284 L405.092,244.284 C407.407,244.284 409.284,246.09 409.284,248.319 L409.284,273.628 C409.284,275.857 407.407,277.663 405.092,277.663 L356.737,277.663 C354.422,277.663 352.545,275.857 352.545,273.628 L352.545,248.319 C352.545,246.09 354.422,244.284 356.737,244.284 z" fill-opacity="0" stroke="#FFFFFF" stroke-width="3"/>
    <g>
      <path d="M421.034,341.3 C422.839,357.932 410.82,372.879 394.188,374.684 C377.556,376.489 362.609,364.47 360.804,347.837 C358.999,331.205 371.018,316.259 387.65,314.454 C404.283,312.649 419.229,324.668 421.034,341.3 z" fill-opacity="0" stroke="#FFFFFF" stroke-width="3"/>
      <path d="M411.641,342.32 C412.884,353.764 404.613,364.049 393.168,365.291 C381.724,366.533 371.439,358.263 370.197,346.818 C368.954,335.373 377.225,325.089 388.67,323.847 C400.115,322.604 410.399,330.875 411.641,342.32 z" fill-opacity="0" stroke="#FFFFFF" stroke-width="3"/>
      <path d="M401.739,343.395 C402.387,349.37 398.069,354.74 392.093,355.389 C386.118,356.037 380.748,351.719 380.099,345.743 C379.451,339.768 383.769,334.398 389.745,333.749 C395.72,333.101 401.09,337.419 401.739,343.395 z" fill-opacity="0" stroke="#FFFFFF" stroke-width="3"/>
    </g>
    <g>
      <path d="M212.099,344.937 C213.904,361.569 201.885,376.515 185.252,378.321 C168.62,380.126 153.674,368.106 151.869,351.474 C150.064,334.842 162.083,319.896 178.715,318.09 C195.347,316.285 210.294,328.305 212.099,344.937 z" fill-opacity="0" stroke="#FFFFFF" stroke-width="3"/>
      <path d="M202.706,345.956 C203.948,357.401 195.678,367.686 184.233,368.928 C172.788,370.17 162.504,361.899 161.261,350.455 C160.019,339.01 168.29,328.725 179.735,327.483 C191.179,326.241 201.464,334.512 202.706,345.956 z" fill-opacity="0" stroke="#FFFFFF" stroke-width="3"/>
      <path d="M192.803,347.031 C193.452,353.007 189.134,358.377 183.158,359.025 C177.183,359.674 171.813,355.355 171.164,349.38 C170.516,343.404 174.834,338.034 180.809,337.386 C186.785,336.737 192.155,341.056 192.803,347.031 z" fill-opacity="0" stroke="#FFFFFF" stroke-width="3"/>
    </g>
  </g>
</svg>
