<?xml version="1.0" encoding="UTF-8"?>
<!DOCTYPE svg PUBLIC "-//W3C//DTD SVG 1.1//EN" "http://www.w3.org/Graphics/SVG/1.1/DTD/svg11.dtd">
<svg version="1.1" xmlns="http://www.w3.org/2000/svg" xmlns:xlink="http://www.w3.org/1999/xlink" x="0" y="0" width="500" height="500" viewBox="0, 0, 500, 500">
  <g id="Layer_1">
    <g>
      <path d="M421.034,341.3 C422.839,357.932 410.82,372.879 394.188,374.684 C377.556,376.489 362.609,364.47 360.804,347.837 C358.999,331.205 371.018,316.259 387.65,314.454 C404.283,312.649 419.229,324.668 421.034,341.3 z" fill-opacity="0" stroke="#FFFFFF" stroke-width="3"/>
      <path d="M411.641,342.32 C412.884,353.764 404.613,364.049 393.168,365.291 C381.724,366.533 371.439,358.263 370.197,346.818 C368.954,335.373 377.225,325.089 388.67,323.847 C400.115,322.604 410.399,330.875 411.641,342.32 z" fill-opacity="0" stroke="#FFFFFF" stroke-width="3"/>
      <path d="M401.739,343.395 C402.387,349.37 398.069,354.74 392.093,355.389 C386.118,356.037 380.748,351.719 380.099,345.743 C379.451,339.768 383.769,334.398 389.745,333.749 C395.72,333.101 401.09,337.419 401.739,343.395 z" fill-opacity="0" stroke="#FFFFFF" stroke-width="3"/>
    </g>
    <g>
      <path d="M212.099,344.937 C213.904,361.569 201.885,376.515 185.252,378.321 C168.62,380.126 153.674,368.106 151.869,351.474 C150.064,334.842 162.083,319.896 178.715,318.09 C195.347,316.285 210.294,328.305 212.099,344.937 z" fill-opacity="0" stroke="#FFFFFF" stroke-width="3"/>
      <path d="M202.706,345.956 C203.948,357.401 195.678,367.686 184.233,368.928 C172.788,370.17 162.504,361.899 161.261,350.455 C160.019,339.01 168.29,328.725 179.735,327.483 C191.179,326.241 201.464,334.512 202.706,345.956 z" fill-opacity="0" stroke="#FFFFFF" stroke-width="3"/>
      <path d="M192.803,347.031 C193.452,353.007 189.134,358.377 183.158,359.025 C177.183,359.674 171.813,355.355 171.164,349.38 C170.516,343.404 174.834,338.034 180.809,337.386 C186.785,336.737 192.155,341.056 192.803,347.031 z" fill-opacity="0" stroke="#FFFFFF" stroke-width="3"/>
    </g>
  </g>
  <g id="Layer_2">
    <path d="M278,219.5 C321.671,219.489 376.797,240.082 378.467,281.027 L423.14,281.027 C429.414,281.027 434.5,285.646 434.5,291.344 L446.5,346.182 C446.5,351.881 441.414,356.5 435.14,356.5 L425.697,356.5 C426.987,352.654 427.373,348.6 427.469,344.569 C427.469,322.936 411.105,305.4 390.919,305.4 C370.733,305.4 354.369,322.936 354.369,344.569 C354.313,348.627 355.015,352.619 356.141,356.5 L217.623,356.5 C218.209,354.012 218.296,351.447 218.356,348.903 C218.356,327.271 201.992,309.734 181.806,309.734 C161.62,309.734 145.256,327.271 145.256,348.903 C145.229,351.457 145.511,353.996 145.989,356.5 L120.86,356.5 C114.586,356.5 109.5,351.881 109.5,346.182 L122.5,291.344 C122.5,285.646 127.586,281.027 133.86,281.027 L177.533,281.027 C178.454,251.17 210.917,230.66 243.445,223.283 C254.768,220.715 266.287,219.684 278,219.5 L278,219.5 z" fill-opacity="0" stroke="#FFFFFF" stroke-width="2"/>
    <path d="M266.237,240.91 L266.237,282.324 L203.141,282.324 C207.468,260.148 232.121,247.755 252.007,243.061 C261.007,241.251 256.269,242.005 266.237,240.91 z" fill-opacity="0" stroke="#FFFFFF" stroke-width="2"/>
    <path d="M288.938,240.802 C310.499,242.506 332.504,250.3 346.142,267.747 C349.284,271.962 352.034,277.073 352.859,282.324 L288.938,282.324 L288.938,240.802 z" fill-opacity="0" stroke="#FFFFFF" stroke-width="2"/>
  </g>
</svg>
