<?xml version="1.0" encoding="UTF-8"?>
<!DOCTYPE svg PUBLIC "-//W3C//DTD SVG 1.1//EN" "http://www.w3.org/Graphics/SVG/1.1/DTD/svg11.dtd">
<svg version="1.1" xmlns="http://www.w3.org/2000/svg" xmlns:xlink="http://www.w3.org/1999/xlink" x="0" y="0" width="100" height="339" viewBox="0, 0, 100, 339">
  <g id="Layer_1">
    <path d="M19.11,96.282 L19.11,107.664 L23.631,107.664 L23.631,96.282 L23.658,107.664 L34.909,205.883 L36.5,205.883 L36.5,128.308 L45.5,128.308 L45.5,109.683 L50.929,109.683 L50.929,107.107 L53.554,107.107 L53.554,109.683 L55.804,109.683 L55.804,107.664 L57.554,107.664 L57.554,109.683 L59.804,109.683 L59.804,108.357 L61.429,108.357 L61.429,109.683 L63,109.683 L63,111.293 L65.545,111.293 L75.84,170.899 L78.383,170.899 L78.383,185.624 L79.012,189.261 L80,189.261 L80,178.308 L94.233,178.308 L94.233,175.924 L96.552,175.924 L96.552,178.308 L97.5,178.308 L97.5,242.782 L63,242.782 L63,243.5 L45.5,243.5 L45.5,242.782 L38.805,242.782 L38.881,243.5 L2.881,243.5 L19.065,107.664 L19.11,96.282 z" fill-opacity="0" stroke="#FFFFFF" stroke-width="1"/>
  </g>
</svg>
