<?xml version="1.0" encoding="UTF-8"?>
<!DOCTYPE svg PUBLIC "-//W3C//DTD SVG 1.1//EN" "http://www.w3.org/Graphics/SVG/1.1/DTD/svg11.dtd">
<svg version="1.1" xmlns="http://www.w3.org/2000/svg" xmlns:xlink="http://www.w3.org/1999/xlink" x="0" y="0" width="200" height="200" viewBox="0, 0, 200, 200">
  <g id="Layer_1">
    <path d="M142.5,62.505 C150.784,62.505 157.5,69.22 157.5,77.505 C157.5,77.505 157.5,152.505 157.5,152.505 C157.5,160.789 150.784,167.505 142.5,167.505 L91.18,167.505 C83.134,175.551 75.088,183.597 67.042,191.643 C65.91,192.775 64.074,192.775 62.943,191.643 C54.897,183.597 46.85,175.551 38.804,167.505 L27.5,167.505 C19.216,167.505 12.5,160.789 12.5,152.505 C12.5,152.505 12.5,77.505 12.5,77.505 C12.5,69.22 19.216,62.505 27.5,62.505 C27.5,62.505 142.5,62.505 142.5,62.505 z z" fill-opacity="0" stroke="#FFFFFF" stroke-width="0.25"/>
    <path d="M115,105.005 C120.523,105.005 125,109.482 125,115.005 C125,120.528 120.523,125.005 115,125.005 C109.477,125.005 105,120.528 105,115.005 C105,109.482 109.477,105.005 115,105.005 z M55,105.005 C60.523,105.005 65,109.482 65,115.005 C65,120.528 60.523,125.005 55,125.005 C49.477,125.005 45,120.528 45,115.005 C45,109.482 49.477,105.005 55,105.005 z M85,105.005 C90.523,105.005 95,109.482 95,115.005 C95,120.528 90.523,125.005 85,125.005 C79.477,125.005 75,120.528 75,115.005 C75,109.482 79.477,105.005 85,105.005 z" fill-opacity="0" stroke="#FFFFFF" stroke-width="0.25"/>
    <g>
      <path d="M139.354,12.641 C140.389,12.481 141.176,12.799 141.957,13.437 C150.003,21.483 158.05,29.528 166.096,37.575 L177.4,37.575 C185.684,37.575 192.4,44.291 192.4,52.575 C192.4,52.575 192.4,127.575 192.4,127.575 C192.4,135.859 185.684,142.575 177.4,142.575 L157.4,142.575 L157.4,77.575 C157.4,69.291 150.684,62.575 142.4,62.575 L47.4,62.575 L47.4,52.575 C47.4,44.291 54.116,37.575 62.4,37.575 L113.719,37.575 C121.765,29.529 129.812,21.483 137.858,13.437 C138.603,12.828 138.131,13.139 139.354,12.641 z" fill="#FFFFFF" fill-opacity="0.135"/>
      <path d="M139.354,12.641 C140.389,12.481 141.176,12.799 141.957,13.437 C150.003,21.483 158.05,29.528 166.096,37.575 L177.4,37.575 C185.684,37.575 192.4,44.291 192.4,52.575 C192.4,52.575 192.4,127.575 192.4,127.575 C192.4,135.859 185.684,142.575 177.4,142.575 L157.4,142.575 L157.4,77.575 C157.4,69.291 150.684,62.575 142.4,62.575 L47.4,62.575 L47.4,52.575 C47.4,44.291 54.116,37.575 62.4,37.575 L113.719,37.575 C121.765,29.529 129.812,21.483 137.858,13.437 C138.603,12.828 138.131,13.139 139.354,12.641 z" fill-opacity="0" stroke="#FFFFFF" stroke-width="0.25"/>
    </g>
  </g>
</svg>
