<?xml version="1.0" encoding="UTF-8"?>
<!DOCTYPE svg PUBLIC "-//W3C//DTD SVG 1.1//EN" "http://www.w3.org/Graphics/SVG/1.1/DTD/svg11.dtd">
<svg version="1.1" xmlns="http://www.w3.org/2000/svg" xmlns:xlink="http://www.w3.org/1999/xlink" x="0" y="0" width="77" height="77" viewBox="0, 0, 77, 77">
  <g id="Layer_1">
    <path d="M12.772,41.094 C12.772,41.094 35.399,63.722 35.399,63.722 C35.399,63.722 30.45,71.5 30.45,71.5 C30.45,71.5 4.994,46.044 4.994,46.044 C4.994,46.044 12.772,41.094 12.772,41.094 z" fill-opacity="0" stroke="#FFFFFF" stroke-width="1"/>
    <path d="M15.6,60.893 C17.944,63.237 18.022,66.957 15.775,69.204 C13.198,71.781 6.408,71.5 5.701,70.793 C4.994,70.086 4.713,63.296 7.289,60.719 C9.536,58.472 13.257,58.55 15.6,60.893 z" fill-opacity="0" stroke="#FFFFFF" stroke-width="1"/>
    <path d="M4.994,33.316 C4.994,33.316 6.408,31.902 6.408,31.902 C6.408,31.902 17.036,29.847 26.958,19.925 C46.586,0.298 69.34,7.153 69.34,7.153 C69.34,7.153 76.196,29.908 56.568,49.536 C46.646,59.457 44.592,70.086 44.592,70.086 C44.592,70.086 43.178,71.5 43.178,71.5 C43.178,71.5 4.994,33.316 4.994,33.316 z" fill-opacity="0" stroke="#FFFFFF" stroke-width="1"/>
    <path d="M51.663,24.831 C55.568,28.736 55.568,35.068 51.663,38.973 C47.758,42.878 41.426,42.878 37.521,38.973 C33.615,35.068 33.615,28.736 37.521,24.831 C41.426,20.926 47.758,20.926 51.663,24.831 z" fill-opacity="0" stroke="#FFFFFF" stroke-width="1"/>
    <path d="M49.541,26.952 C52.275,29.686 52.275,34.118 49.541,36.852 C46.808,39.585 42.376,39.585 39.642,36.852 C36.908,34.118 36.908,29.686 39.642,26.952 C42.376,24.219 46.808,24.219 49.541,26.952 z" fill-opacity="0" stroke="#FFFFFF" stroke-width="1"/>
  </g>
</svg>
