<?xml version="1.0" encoding="UTF-8"?>
<!DOCTYPE svg PUBLIC "-//W3C//DTD SVG 1.1//EN" "http://www.w3.org/Graphics/SVG/1.1/DTD/svg11.dtd">
<svg version="1.1" xmlns="http://www.w3.org/2000/svg" xmlns:xlink="http://www.w3.org/1999/xlink" x="0" y="0" width="768" height="1024" viewBox="0, 0, 768, 1024">
  <defs>
    <linearGradient id="Gradient_1" gradientUnits="userSpaceOnUse" x1="NaN" y1="NaN" x2="NaN" y2="NaN">
      <stop offset="0" stop-color="#8223AA"/>
      <stop offset="1" stop-color="#400D56"/>
    </linearGradient>
  </defs>
  <g id="Layer_1">
    <path d="M284.714,472.08 C286.011,472.16 287.369,472.147 288.633,472.521 C299.081,498.969 292.505,518.505 290.521,523.337 C302.841,536.777 310.281,553.913 310.281,574.873 C310.415,606.077 301.5,636.215 273.474,654.477 C271.986,656.95 274.856,656.443 274.856,656.443 L301.489,656.427 C317.946,653.264 328.486,639.324 331.834,623.666 C331.834,623.666 334.876,603.884 352.324,595.584 L352.324,595.584 C352.324,595.584 369.657,588.426 357.593,605.228 C357.593,605.228 347.936,615.016 347.497,637.53 C347.581,644.507 344.784,650.671 341.096,656.403 L905.5,656.187 C907.157,656.187 908.5,657.53 908.5,659.187 L908.5,886.205 C908.5,887.862 907.157,889.205 905.5,889.205 L142.785,889.205 C141.128,889.205 139.785,887.862 139.785,886.205 L140.093,776.187 L139.785,722.105 C86.377,733.721 75.257,699.449 75.257,699.449 C66.521,677.257 53.929,671.353 53.929,671.353 C36.505,659.433 55.257,659.689 55.257,659.689 C74.537,661.033 84.681,679.481 84.681,679.481 C101.801,708.825 129.593,700.345 140.553,695.433 C142.265,683.033 147.241,674.553 152.745,669.769 C110.105,664.889 65.273,648.425 65.273,574.873 C65.273,553.897 72.777,536.777 85.049,523.337 C83.065,518.489 76.489,498.953 86.921,472.521 C86.921,472.521 103.049,467.369 139.737,492.201 C155.049,487.945 171.465,485.817 187.785,485.737 C204.105,485.817 220.537,487.945 235.881,492.201 C250.508,482.874 266.747,472.462 284.714,472.08 z" fill-opacity="0" stroke="#FDFDFD" stroke-width="8"/>
    <g>
      <path d="M112.5,894.5" fill="url(#Gradient_1)"/>
      <path d="M112.5,894.5" fill-opacity="0" stroke="#FDFDFD" stroke-width="1"/>
    </g>
    <g>
      <path d="M394.791,815.261 Q376.464,820.109 362.837,820.109 Q338.787,820.109 325.944,807.454 Q313.101,794.798 313.101,771.187 Q313.101,748.017 326.114,735.141 Q339.128,722.265 362.633,722.265 Q378.031,722.265 394.655,726.484 L394.655,738.698 Q373.807,732.15 362.701,732.15 Q346.35,732.15 337.322,742.413 Q328.295,752.676 328.295,771.313 Q328.295,789.761 337.969,799.993 Q347.644,810.224 365.086,810.224 Q372.24,810.224 380.552,807.895 L380.552,777.547 L394.791,777.547 z" fill="#FFFFFF"/>
      <path d="M413.499,817.78 L413.499,749.402 L426.921,749.402 L426.921,817.78 z M413.499,736.998 L413.499,724.595 L426.921,724.595 L426.921,736.998 z" fill="#FFFFFF"/>
      <path d="M469.27,819.354 Q459.051,819.354 453.328,813.939 Q447.605,808.524 447.605,798.891 L447.605,758.721 L438.339,758.721 L438.339,749.402 L447.605,749.402 L447.605,736.998 L461.026,735.802 L461.026,749.402 L480.376,749.402 L480.376,758.721 L461.026,758.721 L461.026,796.624 Q461.026,810.035 473.563,810.035 Q476.22,810.035 480.035,809.217 L480.035,817.78 Q473.835,819.354 469.27,819.354 z" fill="#FFFFFF"/>
      <path d="M492.066,817.78 L492.066,724.595 L506.374,724.595 L506.374,763.884 L554.338,763.884 L554.338,724.595 L568.646,724.595 L568.646,817.78 L554.338,817.78 L554.338,773.769 L506.374,773.769 L506.374,817.78 z" fill="#FFFFFF"/>
      <path d="M634.501,817.78 L634.501,804.935 Q623.804,819.354 608.543,819.354 Q598.868,819.354 593.145,813.719 Q587.422,808.083 587.422,798.513 L587.422,749.402 L600.844,749.402 L600.844,794.484 Q600.844,802.165 603.263,805.408 Q605.681,808.65 611.336,808.65 Q623.6,808.65 634.501,793.728 L634.501,749.402 L647.923,749.402 L647.923,817.78 z" fill="#FFFFFF"/>
      <path d="M668.062,818.535 L668.062,718.361 L681.483,718.361 L681.483,762.246 Q689.727,747.891 706.215,747.891 Q719.569,747.891 727.234,756.895 Q734.899,765.898 734.899,781.513 Q734.899,798.513 726.212,808.934 Q717.525,819.354 703.354,819.354 Q690.204,819.354 681.483,810.035 L679.848,818.535 z M681.483,801.472 Q691.839,810.035 701.242,810.035 Q720.591,810.035 720.591,782.772 Q720.591,758.721 703.422,758.721 Q692.18,758.721 681.483,769.991 z" fill="#FFFFFF"/>
    </g>
  </g>
</svg>
